<svg xmlns="http://www.w3.org/2000/svg"><symbol id="fleche-haut" viewBox="0 0 16 16"><path fill-rule="evenodd" d="M8 10a.5.5 0 0 0 .5-.5V3.707l2.146 2.147a.5.5 0 0 0 .708-.708l-3-3a.5.5 0 0 0-.708 0l-3 3a.5.5 0 1 0 .708.708L7.5 3.707V9.5a.5.5 0 0 0 .5.5zm-7 2.5a.5.5 0 0 1 .5-.5h13a.5.5 0 0 1 0 1h-13a.5.5 0 0 1-.5-.5z"/></symbol><symbol id="petit-chevron" viewBox="0 0 7 12"><path stroke="#fff" stroke-linecap="round" stroke-linejoin="round" stroke-width="2" d="M1 1l5 5-5 5"/></symbol><symbol id="telecharger" viewBox="0 0 12 16"><path d="M5.5 0a.5.5 0 0 1 .5.5v11.197l3.628-4.031a.5.5 0 1 1 .744.668l-4.5 5a.5.5 0 0 1-.744 0l-4.5-5a.5.5 0 1 1 .744-.668L5 11.697V.5a.5.5 0 0 1 .5-.5zM0 15.5a.5.5 0 0 1 .5-.5h11a.5.5 0 0 1 0 1H.5a.5.5 0 0 1-.5-.5z"/></symbol><symbol id="info" viewBox="0 0 20 21"><circle cx="10" cy="10.5" r="8" stroke="#A7BFCF" stroke-linecap="round"/><path fill="#A7BFCF" d="M9.145 6.772c0-.208.08-.384.24-.528a.88.88 0 0 1 .612-.228c.232 0 .428.076.588.228a.67.67 0 0 1 .252.528c0 .2-.084.376-.252.528a.822.822 0 0 1-.588.228.88.88 0 0 1-.612-.228.708.708 0 0 1-.24-.528zm.084 7.236V9.28c0-.144.072-.26.216-.348.144-.088.328-.132.552-.132.224 0 .408.044.552.132.152.088.228.204.228.348v4.728c0 .12-.08.232-.24.336a.933.933 0 0 1-.54.156c-.216 0-.4-.048-.552-.144-.144-.104-.216-.22-.216-.348z"/></symbol><symbol id="info2" viewBox="0 0 20 21"><circle cx="10" cy="10.5" r="7.5" stroke="#A7BFCF"/><path fill="#A7BFCF" d="M7.84 7.713c0-.308.184-.601.55-.88.368-.279.859-.418 1.475-.418.69 0 1.24.176 1.65.528.41.352.616.796.616 1.331 0 .183-.03.363-.088.539-.051.176-.11.326-.176.451-.059.117-.15.253-.275.407-.117.147-.206.25-.264.308l-.286.275-.21.176c-.248.198-.402.396-.461.594-.059.198-.088.484-.088.858 0 .264-.183.396-.55.396-.183 0-.315-.044-.396-.132-.073-.088-.11-.25-.11-.484 0-.763.22-1.342.66-1.738l.319-.264a8.45 8.45 0 0 0 .374-.341c.088-.088.172-.213.253-.374.088-.169.132-.341.132-.517 0-.3-.103-.532-.308-.693-.206-.169-.48-.253-.825-.253-.242 0-.444.04-.605.121-.161.08-.271.169-.33.264a1.394 1.394 0 0 1-.22.253.391.391 0 0 1-.286.121.628.628 0 0 1-.385-.132.496.496 0 0 1-.165-.396zm1.167 6.105a.74.74 0 0 1 .209-.528.72.72 0 0 1 .528-.22.72.72 0 0 1 .528.22.745.745 0 0 1 0 1.056.72.72 0 0 1-.528.22.72.72 0 0 1-.528-.22.765.765 0 0 1-.21-.528z"/></symbol><symbol id="plus" viewBox="0 0 20 20"><rect width="12" height="2" x="4" y="9" fill="#24353F" rx="1"/><rect width="12" height="2" x="11" y="4" fill="#24353F" rx="1" transform="rotate(90 11 4)"/></symbol><symbol id="moins" viewBox="0 0 20 20"><path fill="#24353F" d="M4 9.2h12v1.6H4V9.2z"/></symbol><symbol id="chevron" viewBox="0 0 12 12"><path d="M6.707 1.05a1 1 0 0 1 0 1.415L2.464 6.707A1 1 0 0 1 1.05 5.293L5.293 1.05a1 1 0 0 1 1.414 0z"/><path d="M1.05 5.293a1 1 0 0 1 1.415 0l4.243 4.243a1 1 0 0 1-1.415 1.414L1.051 6.707a1 1 0 0 1 0-1.414z"/></symbol><symbol id="recommencer" viewBox="0 0 20 20"><path stroke="#3AB0EB" stroke-linecap="round" stroke-linejoin="round" d="M3 9.5a7.5 7.5 0 1 1 2.25 5.356M1.305 8l1.67 2.282 2.283-1.671"/></symbol><symbol id="fermer" viewBox="0 0 496.1 496.1"><path d="M259.41 247.998L493.754 13.654a8 8 0 0 0 0-11.312 8 8 0 0 0-11.312 0L248.098 236.686 13.754 2.342A8 8 0 0 0 2.442 13.654l234.344 234.344L2.442 482.342a8 8 0 0 0-.196 11.312 8 8 0 0 0 11.508 0L248.098 259.31l234.344 234.344a8 8 0 0 0 11.312-.196 8 8 0 0 0 0-11.116L259.41 247.998z"/></symbol><symbol id="union" viewBox="0 0 23 22"><path fill-rule="evenodd" d="M7 3a3 3 0 0 1 3-3h3a3 3 0 0 1 3 3v1h4a3 3 0 0 1 3 3v12a3 3 0 0 1-3 3H3a3 3 0 0 1-3-3V7a3 3 0 0 1 3-3h4V3zm7 1H9V3a1 1 0 0 1 1-1h3a1 1 0 0 1 1 1v1z" clip-rule="evenodd"/></symbol><symbol id="profil" viewBox="0 0 25 25"><path fill-rule="evenodd" d="M12.5 11a4.5 4.5 0 1 0 0-9 4.5 4.5 0 0 0 0 9zM2.192 21.012C3.129 16.265 7.388 13 12.5 13s9.371 3.265 10.308 8.012C23.022 22.095 22.105 23 21 23H4c-1.104 0-2.022-.905-1.808-1.988z" clip-rule="evenodd"/></symbol></svg>