<svg xmlns="http://www.w3.org/2000/svg" width="20" height="21" fill="none" viewBox="0 0 20 21"><circle cx="10" cy="10.5" r="8" stroke="#A7BFCF" stroke-linecap="round"/><path fill="#A7BFCF" d="M9.145 6.772c0-.208.08-.384.24-.528a.88.88 0 0 1 .612-.228c.232 0 .428.076.588.228a.67.67 0 0 1 .252.528c0 .2-.084.376-.252.528a.822.822 0 0 1-.588.228.88.88 0 0 1-.612-.228.708.708 0 0 1-.24-.528zm.084 7.236V9.28c0-.144.072-.26.216-.348.144-.088.328-.132.552-.132.224 0 .408.044.552.132.152.088.228.204.228.348v4.728c0 .12-.08.232-.24.336a.933.933 0 0 1-.54.156c-.216 0-.4-.048-.552-.144-.144-.104-.216-.22-.216-.348z"/></svg>