<svg width="100" height="100" viewBox="0 0 100 100" fill="none" xmlns="http://www.w3.org/2000/svg">
<path d="M53.7775 59.2687C53.1076 59.3244 52.4936 58.9907 51.8796 58.657C46.2418 55.3755 41.4413 50.7037 38.0922 45.1419C37.4781 44.1964 36.92 43.0841 37.1432 41.9717C37.534 39.8583 40.2133 39.024 40.9948 37.0218C41.7204 35.2976 40.7715 33.351 39.6551 31.8493C37.8131 29.3466 35.4686 27.1775 32.7893 25.5646C31.5055 24.7859 30.11 24.1185 28.6028 24.0073C21.8487 23.6736 21.4579 34.9083 22.351 39.3021C23.3 43.8627 25.5886 48.0896 28.2679 51.9272C34.5755 61.0485 43.2276 68.7793 53.7216 72.4501C57.4057 73.7293 61.3689 74.5079 65.1647 73.6181C67.0625 73.1731 68.8488 72.3389 70.1884 70.8928C71.5281 69.5024 72.2537 67.5001 71.9188 65.6091C71.5839 63.6625 70.2442 62.1052 68.9046 60.7148C66.9509 58.7126 64.7739 56.9328 62.4295 55.3755C61.9829 55.0974 61.5364 54.8193 61.034 54.7637C60.4758 54.7081 59.9734 54.9862 59.4711 55.2643C58.0756 56.0429 56.7917 56.9884 55.6753 58.0452C55.173 58.5457 54.6148 59.0463 53.9449 59.1575C53.8891 59.2131 53.8333 59.2687 53.7775 59.2687Z" fill="#BEECFF"/>
<g style="mix-blend-mode:multiply">
<path d="M60.5636 60.3999C59.8938 60.4555 59.2797 60.1218 58.6657 59.7881C53.028 56.5066 48.2275 51.8348 44.8783 46.273C44.2643 45.3275 43.7061 44.2152 43.9294 43.1028C44.3201 40.9894 46.9994 40.1551 47.7809 38.1529C48.5066 36.4287 47.5576 34.4821 46.4412 32.9804C44.5992 30.4777 42.2548 28.3086 39.5754 26.6957C38.2916 25.917 36.8961 25.2496 35.389 25.1384C28.6348 24.8047 28.2441 36.0394 29.1372 40.4332C30.0861 44.9938 32.3747 49.2207 35.0541 53.0583C41.3617 62.1796 50.0137 69.9104 60.5078 73.5812C64.1919 74.8604 68.1551 75.639 71.9508 74.7492C73.8487 74.3042 75.6349 73.47 76.9746 72.0239C78.3142 70.6335 79.0399 68.6312 78.705 66.7402C78.37 64.7936 77.0304 63.2363 75.6907 61.8459C73.737 59.8437 71.5601 58.0639 69.2156 56.5066C68.7691 56.2285 68.3225 55.9505 67.8201 55.8948C67.2619 55.8392 66.7596 56.1173 66.2572 56.3954C64.8617 57.174 63.5779 58.1195 62.4615 59.1763C61.9591 59.6768 61.4009 60.1774 60.7311 60.2886C60.6752 60.3442 60.6194 60.3999 60.5636 60.3999Z" fill="#3AB0EB"/>
</g>
</svg>
