<svg xmlns="http://www.w3.org/2000/svg" width="20" height="21" fill="none" viewBox="0 0 20 21"><circle cx="10" cy="10.5" r="7.5" stroke="#A7BFCF"/><path fill="#A7BFCF" d="M7.84 7.713c0-.308.184-.601.55-.88.368-.279.859-.418 1.475-.418.69 0 1.24.176 1.65.528.41.352.616.796.616 1.331 0 .183-.03.363-.088.539-.051.176-.11.326-.176.451-.059.117-.15.253-.275.407-.117.147-.206.25-.264.308l-.286.275-.21.176c-.248.198-.402.396-.461.594-.059.198-.088.484-.088.858 0 .264-.183.396-.55.396-.183 0-.315-.044-.396-.132-.073-.088-.11-.25-.11-.484 0-.763.22-1.342.66-1.738l.319-.264a8.45 8.45 0 0 0 .374-.341c.088-.088.172-.213.253-.374.088-.169.132-.341.132-.517 0-.3-.103-.532-.308-.693-.206-.169-.48-.253-.825-.253-.242 0-.444.04-.605.121-.161.08-.271.169-.33.264a1.394 1.394 0 0 1-.22.253.391.391 0 0 1-.286.121.628.628 0 0 1-.385-.132.496.496 0 0 1-.165-.396zm1.167 6.105a.74.74 0 0 1 .209-.528.72.72 0 0 1 .528-.22.72.72 0 0 1 .528.22.745.745 0 0 1 0 1.056.72.72 0 0 1-.528.22.72.72 0 0 1-.528-.22.765.765 0 0 1-.21-.528z"/></svg>