<svg width="100" height="100" viewBox="0 0 100 100" fill="none" xmlns="http://www.w3.org/2000/svg">
<rect width="100" height="100" fill="white"/>
<path d="M94.6145 75.6142C94.2394 75.9893 93.7307 76.2 93.2003 76.2H75.4003H35.8003H18.0003C17.7368 76.2 17.4759 76.1479 17.2326 76.0468C16.9893 75.9457 16.7684 75.7975 16.5825 75.6107C16.3967 75.4239 16.2496 75.2022 16.1496 74.9584C16.0497 74.7146 15.999 74.4535 16.0003 74.19V69V58.21C15.9803 42 26.4103 33 39.4103 33H55.6003C62.6003 33 66.1603 35.93 70.6003 42.83L71.0403 43.48C73.6303 47.52 74.9403 48.83 77.1203 49.24C88.7703 51.4 95.2003 56.4 95.2003 65.4V74.2C95.2003 74.7304 94.9896 75.2391 94.6145 75.6142Z" fill="#BEECFF"/>
<g style="mix-blend-mode:multiply">
<circle cx="35.5002" cy="73.5" r="10.5" fill="#3AB0EB"/>
</g>
<g style="mix-blend-mode:multiply">
<circle cx="75.5002" cy="73.5" r="10.5" fill="#3AB0EB"/>
</g>
<g style="mix-blend-mode:multiply">
<path fill-rule="evenodd" clip-rule="evenodd" d="M10.0962 18.6509L10.0961 18.6267C10.0961 17.176 11.2362 16 12.6425 16C14.0488 16 15.1888 17.1765 15.1888 18.6272L15.2132 24.1924L22.9027 24.1566L22.8786 18.6511L22.8786 18.6511L22.8785 18.6267C22.8785 17.176 24.0186 16 25.4249 16C26.8312 16 27.9712 17.1767 27.9712 18.6274L27.9953 24.1328L32.9587 24.1097L32.9999 33.5143C33.0333 41.1611 27.2909 47.4446 19.9994 47.9651C19.9998 47.9767 20 47.9883 20 48V52.2856C20 54.8893 22.1107 57 24.7144 57H29C29.5523 57 30 57.4477 30 58C30 58.5523 29.5523 59 29 59H24.7144C21.0061 59 18 55.9939 18 52.2856V48C18 47.9874 18.0002 47.9748 18.0007 47.9623C10.7836 47.4258 5.07439 41.2329 5.04117 33.6446L5 24.24L10.1205 24.2161L10.0962 18.6509L10.0962 18.6509Z" fill="#F1715B"/>
</g>
</svg>
