<svg width="100" height="100" viewBox="0 0 100 100" fill="none" xmlns="http://www.w3.org/2000/svg">
<path d="M18.8258 45.198C18.632 45.27 18.5025 45.4539 18.5 45.6606C18.4975 45.8674 18.6226 46.0543 18.8146 46.131L42.1905 55.4644C42.3626 55.5331 42.5587 55.501 42.6999 55.3809L80.3239 23.3809C80.5088 23.2237 80.5541 22.9564 80.4313 22.7471C80.3086 22.5378 80.0533 22.4468 79.8258 22.5313L18.8258 45.198Z" fill="#BEECFF" stroke="#BEECFF" stroke-linecap="round" stroke-linejoin="round"/>
<path d="M42.5 76C42.5 76.2184 42.6417 76.4114 42.85 76.477C43.0583 76.5425 43.285 76.4653 43.41 76.2862L80.41 23.2862C80.5542 23.0796 80.5222 22.798 80.3352 22.629C80.1483 22.4601 79.8648 22.4567 79.6738 22.621L42.6738 54.4656C42.5635 54.5606 42.5 54.6989 42.5 54.8445V76Z" fill="#3AB0EB" stroke="#3AB0EB" stroke-linecap="round" stroke-linejoin="round"/>
<g style="mix-blend-mode:multiply">
<path d="M49.6197 57.8312C49.5146 57.9543 49.4756 58.1207 49.5151 58.2776C49.5545 58.4346 49.6675 58.5628 49.8183 58.6216L72.4849 67.4658C72.6252 67.5205 72.7828 67.5091 72.9137 67.4347C73.0447 67.3603 73.1351 67.2308 73.1599 67.0822L80.4932 23.0822C80.5301 22.8606 80.4147 22.6416 80.2111 22.5467C80.0074 22.4519 79.7655 22.5045 79.6197 22.6754L49.6197 57.8312Z" fill="#BEECFF"/>
<path d="M49.6197 57.8312C49.5146 57.9543 49.4756 58.1207 49.5151 58.2776C49.5545 58.4346 49.6675 58.5628 49.8183 58.6216L72.4849 67.4658C72.6252 67.5205 72.7828 67.5091 72.9137 67.4347C73.0447 67.3603 73.1351 67.2308 73.1599 67.0822L80.4932 23.0822C80.5301 22.8606 80.4147 22.6416 80.2111 22.5467C80.0074 22.4519 79.7655 22.5045 79.6197 22.6754L49.6197 57.8312Z" stroke="#BEECFF" stroke-linecap="round" stroke-linejoin="round"/>
</g>
</svg>
