<svg width="20" height="20" viewBox="0 0 20 20" fill="none" xmlns="http://www.w3.org/2000/svg">
<path fill-rule="evenodd" clip-rule="evenodd" d="M8 1.8999C7.17157 1.8999 6.5 2.57148 6.5 3.3999V3.9999H2.5C2.22386 3.9999 2 4.22376 2 4.4999C2 4.77604 2.22386 4.9999 2.5 4.9999H3.5V15.9999C3.5 17.3806 4.61929 18.4999 6 18.4999H14C15.3807 18.4999 16.5 17.3806 16.5 15.9999V4.9999H17.5C17.7761 4.9999 18 4.77604 18 4.4999C18 4.22376 17.7761 3.9999 17.5 3.9999H13.5V3.3999C13.5 2.57148 12.8284 1.8999 12 1.8999H8ZM12.5 3.9999V3.3999C12.5 3.12376 12.2761 2.8999 12 2.8999H8C7.72386 2.8999 7.5 3.12376 7.5 3.3999V3.9999H12.5ZM4.5 4.9999H15.5V15.9999C15.5 16.8283 14.8284 17.4999 14 17.4999H6C5.17157 17.4999 4.5 16.8283 4.5 15.9999V4.9999ZM9 7.99991C9 7.72377 8.77614 7.49991 8.5 7.49991C8.22386 7.49991 8 7.72377 8 7.99991L8 14.4999C8 14.7761 8.22386 14.9999 8.5 14.9999C8.77614 14.9999 9 14.7761 9 14.4999L9 7.99991ZM11.5 7.49991C11.7761 7.49991 12 7.72377 12 7.99991V14.4999C12 14.7761 11.7761 14.9999 11.5 14.9999C11.2239 14.9999 11 14.7761 11 14.4999V7.99991C11 7.72377 11.2239 7.49991 11.5 7.49991Z" fill="#3AB0EB"/>
</svg>
