<svg width="100" height="100" viewBox="0 0 100 100" fill="none" xmlns="http://www.w3.org/2000/svg">
<g style="mix-blend-mode:multiply">
<path d="M57.9137 59.876C57.9137 58.716 58.0684 57.73 58.3777 56.918C58.6871 56.106 59.2091 55.352 59.9437 54.656C61.0264 53.612 62.0124 52.7033 62.9017 51.93C63.8297 51.1567 64.6224 50.4413 65.2797 49.784C65.9371 49.088 66.4397 48.45 66.7877 47.87C67.1744 47.2513 67.3677 46.6133 67.3677 45.956C67.3677 44.68 66.9617 43.694 66.1497 42.998C65.3764 42.2633 64.3904 41.896 63.1917 41.896C61.3744 41.896 59.9824 42.3987 59.0157 43.404C58.0877 44.4093 57.5657 45.6273 57.4497 47.058L48.5177 46.478C48.9431 42.3793 50.4511 39.2667 53.0417 37.14C55.6324 34.9747 58.9577 33.892 63.0177 33.892C64.7964 33.892 66.4591 34.1433 68.0057 34.646C69.5911 35.11 70.9831 35.8253 72.1817 36.792C73.3804 37.7587 74.3277 38.9573 75.0237 40.388C75.7197 41.8187 76.0677 43.462 76.0677 45.318C76.0677 46.4393 75.9517 47.464 75.7197 48.392C75.4877 49.2813 75.0817 50.1707 74.5017 51.06C73.9604 51.9493 73.2257 52.858 72.2977 53.786C71.4084 54.6753 70.2677 55.6613 68.8757 56.744C67.9864 57.44 67.3871 58.1167 67.0777 58.774C66.7684 59.4313 66.6137 60.0887 66.6137 60.746V62.428H57.9137V59.876ZM56.9277 71.012C56.9277 70.2773 57.0631 69.5813 57.3337 68.924C57.6044 68.2667 57.9717 67.706 58.4357 67.242C58.9384 66.7393 59.5184 66.3527 60.1757 66.082C60.8331 65.8113 61.5291 65.676 62.2637 65.676C62.9984 65.676 63.6944 65.8113 64.3517 66.082C65.0091 66.3527 65.5697 66.7393 66.0337 67.242C66.5364 67.706 66.9231 68.2667 67.1937 68.924C67.4644 69.5813 67.5997 70.2773 67.5997 71.012C67.5997 71.7467 67.4644 72.4427 67.1937 73.1C66.9231 73.7573 66.5364 74.3373 66.0337 74.84C65.5697 75.304 65.0091 75.6713 64.3517 75.942C63.6944 76.2127 62.9984 76.348 62.2637 76.348C61.5291 76.348 60.8331 76.2127 60.1757 75.942C59.5184 75.6713 58.9384 75.304 58.4357 74.84C57.9717 74.3373 57.6044 73.7573 57.3337 73.1C57.0631 72.4427 56.9277 71.7467 56.9277 71.012Z" fill="#3AB0EB"/>
</g>
<g style="mix-blend-mode:multiply">
<path d="M52.9137 61.876C52.9137 60.716 53.0684 59.73 53.3777 58.918C53.6871 58.106 54.2091 57.352 54.9437 56.656C56.0264 55.612 57.0124 54.7033 57.9017 53.93C58.8297 53.1567 59.6224 52.4413 60.2797 51.784C60.9371 51.088 61.4397 50.45 61.7877 49.87C62.1744 49.2513 62.3677 48.6133 62.3677 47.956C62.3677 46.68 61.9617 45.694 61.1497 44.998C60.3764 44.2633 59.3904 43.896 58.1917 43.896C56.3744 43.896 54.9824 44.3987 54.0157 45.404C53.0877 46.4093 52.5657 47.6273 52.4497 49.058L43.5177 48.478C43.9431 44.3793 45.4511 41.2667 48.0417 39.14C50.6324 36.9747 53.9577 35.892 58.0177 35.892C59.7964 35.892 61.4591 36.1433 63.0057 36.646C64.5911 37.11 65.9831 37.8253 67.1817 38.792C68.3804 39.7587 69.3277 40.9573 70.0237 42.388C70.7197 43.8187 71.0677 45.462 71.0677 47.318C71.0677 48.4393 70.9517 49.464 70.7197 50.392C70.4877 51.2813 70.0817 52.1707 69.5017 53.06C68.9604 53.9493 68.2257 54.858 67.2977 55.786C66.4084 56.6753 65.2677 57.6613 63.8757 58.744C62.9864 59.44 62.3871 60.1167 62.0777 60.774C61.7684 61.4313 61.6137 62.0887 61.6137 62.746V64.428H52.9137V61.876ZM51.9277 73.012C51.9277 72.2773 52.0631 71.5813 52.3337 70.924C52.6044 70.2667 52.9717 69.706 53.4357 69.242C53.9384 68.7393 54.5184 68.3527 55.1757 68.082C55.8331 67.8113 56.5291 67.676 57.2637 67.676C57.9984 67.676 58.6944 67.8113 59.3517 68.082C60.0091 68.3527 60.5697 68.7393 61.0337 69.242C61.5364 69.706 61.9231 70.2667 62.1937 70.924C62.4644 71.5813 62.5997 72.2773 62.5997 73.012C62.5997 73.7467 62.4644 74.4427 62.1937 75.1C61.9231 75.7573 61.5364 76.3373 61.0337 76.84C60.5697 77.304 60.0091 77.6713 59.3517 77.942C58.6944 78.2127 57.9984 78.348 57.2637 78.348C56.5291 78.348 55.8331 78.2127 55.1757 77.942C54.5184 77.6713 53.9384 77.304 53.4357 76.84C52.9717 76.3373 52.6044 75.7573 52.3337 75.1C52.0631 74.4427 51.9277 73.7467 51.9277 73.012Z" fill="#BEECFF"/>
</g>
<g style="mix-blend-mode:multiply">
<path d="M31.8924 34.772C31.8924 34.252 31.9617 33.81 32.1004 33.446C32.239 33.082 32.473 32.744 32.8024 32.432C33.2877 31.964 33.7297 31.5567 34.1284 31.21C34.5444 30.8633 34.8997 30.5427 35.1944 30.248C35.489 29.936 35.7144 29.65 35.8704 29.39C36.0437 29.1127 36.1304 28.8267 36.1304 28.532C36.1304 27.96 35.9484 27.518 35.5844 27.206C35.2377 26.8767 34.7957 26.712 34.2584 26.712C33.4437 26.712 32.8197 26.9373 32.3864 27.388C31.9704 27.8387 31.7364 28.3847 31.6844 29.026L27.6804 28.766C27.871 26.9287 28.547 25.5333 29.7084 24.58C30.8697 23.6093 32.3604 23.124 34.1804 23.124C34.9777 23.124 35.723 23.2367 36.4164 23.462C37.127 23.67 37.751 23.9907 38.2884 24.424C38.8257 24.8573 39.2504 25.3947 39.5624 26.036C39.8744 26.6773 40.0304 27.414 40.0304 28.246C40.0304 28.7487 39.9784 29.208 39.8744 29.624C39.7704 30.0227 39.5884 30.4213 39.3284 30.82C39.0857 31.2187 38.7564 31.626 38.3404 32.042C37.9417 32.4407 37.4304 32.8827 36.8064 33.368C36.4077 33.68 36.139 33.9833 36.0004 34.278C35.8617 34.5727 35.7924 34.8673 35.7924 35.162V35.916H31.8924V34.772ZM31.4504 39.764C31.4504 39.4347 31.511 39.1227 31.6324 38.828C31.7537 38.5333 31.9184 38.282 32.1264 38.074C32.3517 37.8487 32.6117 37.6753 32.9064 37.554C33.201 37.4327 33.513 37.372 33.8424 37.372C34.1717 37.372 34.4837 37.4327 34.7784 37.554C35.073 37.6753 35.3244 37.8487 35.5324 38.074C35.7577 38.282 35.931 38.5333 36.0524 38.828C36.1737 39.1227 36.2344 39.4347 36.2344 39.764C36.2344 40.0933 36.1737 40.4053 36.0524 40.7C35.931 40.9947 35.7577 41.2547 35.5324 41.48C35.3244 41.688 35.073 41.8527 34.7784 41.974C34.4837 42.0953 34.1717 42.156 33.8424 42.156C33.513 42.156 33.201 42.0953 32.9064 41.974C32.6117 41.8527 32.3517 41.688 32.1264 41.48C31.9184 41.2547 31.7537 40.9947 31.6324 40.7C31.511 40.4053 31.4504 40.0933 31.4504 39.764Z" fill="#3AB0EB"/>
</g>
<g style="mix-blend-mode:multiply">
<path d="M27.8924 36.772C27.8924 36.252 27.9617 35.81 28.1004 35.446C28.239 35.082 28.473 34.744 28.8024 34.432C29.2877 33.964 29.7297 33.5567 30.1284 33.21C30.5444 32.8633 30.8997 32.5427 31.1944 32.248C31.489 31.936 31.7144 31.65 31.8704 31.39C32.0437 31.1127 32.1304 30.8267 32.1304 30.532C32.1304 29.96 31.9484 29.518 31.5844 29.206C31.2377 28.8767 30.7957 28.712 30.2584 28.712C29.4437 28.712 28.8197 28.9373 28.3864 29.388C27.9704 29.8387 27.7364 30.3847 27.6844 31.026L23.6804 30.766C23.871 28.9287 24.547 27.5333 25.7084 26.58C26.8697 25.6093 28.3604 25.124 30.1804 25.124C30.9777 25.124 31.723 25.2367 32.4164 25.462C33.127 25.67 33.751 25.9907 34.2884 26.424C34.8257 26.8573 35.2504 27.3947 35.5624 28.036C35.8744 28.6773 36.0304 29.414 36.0304 30.246C36.0304 30.7487 35.9784 31.208 35.8744 31.624C35.7704 32.0227 35.5884 32.4213 35.3284 32.82C35.0857 33.2187 34.7564 33.626 34.3404 34.042C33.9417 34.4407 33.4304 34.8827 32.8064 35.368C32.4077 35.68 32.139 35.9833 32.0004 36.278C31.8617 36.5727 31.7924 36.8673 31.7924 37.162V37.916H27.8924V36.772ZM27.4504 41.764C27.4504 41.4347 27.511 41.1227 27.6324 40.828C27.7537 40.5333 27.9184 40.282 28.1264 40.074C28.3517 39.8487 28.6117 39.6753 28.9064 39.554C29.201 39.4327 29.513 39.372 29.8424 39.372C30.1717 39.372 30.4837 39.4327 30.7784 39.554C31.073 39.6753 31.3244 39.8487 31.5324 40.074C31.7577 40.282 31.931 40.5333 32.0524 40.828C32.1737 41.1227 32.2344 41.4347 32.2344 41.764C32.2344 42.0933 32.1737 42.4053 32.0524 42.7C31.931 42.9947 31.7577 43.2547 31.5324 43.48C31.3244 43.688 31.073 43.8527 30.7784 43.974C30.4837 44.0953 30.1717 44.156 29.8424 44.156C29.513 44.156 29.201 44.0953 28.9064 43.974C28.6117 43.8527 28.3517 43.688 28.1264 43.48C27.9184 43.2547 27.7537 42.9947 27.6324 42.7C27.511 42.4053 27.4504 42.0933 27.4504 41.764Z" fill="#BEECFF"/>
</g>
</svg>
