<svg width="100" height="100" viewBox="0 0 100 100" fill="none" xmlns="http://www.w3.org/2000/svg">
<rect width="100" height="100" fill="white"/>
<g style="mix-blend-mode:multiply">
<path d="M82.5889 4.40455C85.5487 20.8894 64.7656 38.6014 50.7109 35.2823L82.5889 4.40455Z" fill="#3AB0EB"/>
<path d="M50.7109 35.2823C47.751 18.7974 68.5341 1.08544 82.5889 4.40455L50.7109 35.2823Z" fill="#3AB0EB"/>
</g>
<g style="mix-blend-mode:multiply">
<path d="M17.0702 19.9386C15.7672 31.6941 32.8608 49.2101 46.4093 46.8274C47.7124 35.0719 30.6187 17.5559 17.0702 19.9386Z" fill="#BEECFF"/>
</g>
<g style="mix-blend-mode:multiply">
<path d="M47.905 45.8535C47.905 31.2659 60.0614 22.5786 66.1395 20.0583C50.1287 28.0637 48.7945 41.8508 48.7945 44.964V74.7619C48.7945 76.5409 48.2015 79.0611 47.905 80.0988V45.8535Z" fill="#F1715B"/>
<path d="M35.897 39.1824C42.5681 40.5166 49.684 46.743 48.3498 52.5247C47.4603 48.0772 43.0129 40.9613 35.897 39.1824Z" fill="#F1715B"/>
</g>
<path d="M47.9044 58.0002C56.7279 57.9582 63.9131 65.4648 63.953 74.7667L64 85.751L32.0472 85.9031L32.0002 74.9188C31.9603 65.6169 39.0809 58.0422 47.9044 58.0002Z" fill="#70C7F2"/>
<path d="M37.7472 91.9313L43.5674 91.9036L43.5109 77.7224L37.6907 77.7501L37.7472 91.9313Z" fill="#70C7F2"/>
<path d="M43.5674 91.9321C43.5674 90.2377 42.2645 88.8642 40.6573 88.8642C39.0501 88.8642 37.7472 90.2369 37.7472 91.9313C37.7472 93.6257 39.0501 95 40.6573 95C42.2645 95 43.5674 93.6264 43.5674 91.9321Z" fill="#70C7F2"/>
<path d="M52.3556 91.9315L58.1758 91.9038L58.1193 80.7226L52.2991 80.7503L52.3556 91.9315Z" fill="#70C7F2"/>
<path d="M58.1759 91.9321C58.1759 90.2377 56.873 88.8642 55.2657 88.8642C53.6585 88.8642 52.3556 90.2371 52.3556 91.9315C52.3556 93.6258 53.6585 95 55.2657 95C56.873 95 58.1759 93.6265 58.1759 91.9321Z" fill="#70C7F2"/>
</svg>
