<svg width="12" height="16" viewBox="0 0 12 16" fill="none" xmlns="http://www.w3.org/2000/svg">
<path d="M5.5 0C5.77614 0 6 0.223858 6 0.5L6 11.697L9.62835 7.66552C9.81308 7.46026 10.1292 7.44362 10.3345 7.62835C10.5397 7.81308 10.5564 8.12923 10.3716 8.33448L5.87165 13.3345C5.77683 13.4398 5.64174 13.5 5.5 13.5C5.35826 13.5 5.22317 13.4398 5.12835 13.3345L0.628353 8.33448C0.443623 8.12923 0.460263 7.81308 0.665518 7.62835C0.870773 7.44362 1.18692 7.46026 1.37165 7.66552L5 11.697L5 0.5C5 0.223858 5.22386 0 5.5 0Z" fill="#3EB8F4"/>
<path d="M0 15.5C0 15.2239 0.223858 15 0.5 15L11.5 15C11.7761 15 12 15.2239 12 15.5C12 15.7761 11.7761 16 11.5 16L0.5 16C0.223858 16 0 15.7761 0 15.5Z" fill="#3EB8F4"/>
</svg>
